<svg xmlns="http://www.w3.org/2000/svg" width="113" height="17" viewBox="0 0 113 17"><g><g><path fill="#f5c253" d="M8.692 0l2.865 5.343 5.826 1.15-4.056 4.453.737 6.053-5.372-2.59-5.371 2.59.736-6.053L0 6.494l5.826-1.151zm24.071 0l2.865 5.343 5.826 1.15-4.055 4.453.736 6.053-5.372-2.59-5.371 2.59.736-6.053-4.056-4.452 5.826-1.151zm24.071 0L59.7 5.343l5.826 1.15-4.055 4.453.736 6.053-5.372-2.59-5.371 2.59.736-6.053-4.056-4.452 5.826-1.151zm24.071 0l2.865 5.343 5.826 1.15-4.055 4.453.736 6.053-5.372-2.59-5.371 2.59.736-6.053-4.056-4.452 5.827-1.151zm23.403 0l2.864 5.343L113 6.493l-4.056 4.453.736 6.053-5.371-2.59-5.372 2.59.736-6.053-4.056-4.452 5.827-1.151z"/></g></g></svg>